# xmcd
#
# Track frame offsets:
#	150
#	15151
#	33352
#	49494
#	65214
#	78566
#	84431
#	102207
#	118121
#	133816
#	149641
#
# Disc length: 2251 seconds
# Revision: 0
# Processed by: cddbd v1.5.2PL0 Copyright (c) Steve Scherf et al.
# Submitted via: dBpowerAMP V12.0
#
DISCID=9b08c90b
DTITLE=Various Artist - Talk That Talk
DYEAR=2011
DGENRE=R&B
TTITLE0=Rihanna - You Da One
TTITLE1=Rihanna - Where Have You Been
TTITLE2=Rihanna featuring Calvin Harris - We Found Love
TTITLE3=Rihanna featuring Jay-Z - Talk That Talk
TTITLE4=Rihanna - Cockiness (Love It)
TTITLE5=Rihanna - Birthday Cake
TTITLE6=Rihanna - We All Want Love
TTITLE7=Rihanna - Drunk On Love
TTITLE8=Rihanna - Roc Me Out
TTITLE9=Rihanna - Watch N' Learn
TTITLE10=Rihanna - Farewell
EXTD=
EXTT0=
EXTT1=
EXTT2=
EXTT3=
EXTT4=
EXTT5=
EXTT6=
EXTT7=
EXTT8=
EXTT9=
EXTT10=
PLAYORDER=
